<mxfile host="app.diagrams.net" modified="2024-05-24T12:02:58.258Z" agent="Mozilla/5.0 (Macintosh; Intel Mac OS X 10_15_7) AppleWebKit/537.36 (KHTML, like Gecko) Chrome/125.0.0.0 Safari/537.36" etag="DQIIKwjs_GK2cz5C0i2v" version="24.3.1" type="device">
  <diagram name="Page-1" id="BAaY-cUCey4XDheGwU7I">
    <mxGraphModel dx="640" dy="378" grid="1" gridSize="10" guides="1" tooltips="1" connect="1" arrows="1" fold="1" page="1" pageScale="1" pageWidth="827" pageHeight="1169" math="0" shadow="0">
      <root>
        <mxCell id="0" />
        <mxCell id="1" parent="0" />
        <mxCell id="PEpBy_y8UZYiY-abr7ag-3" value="" style="shape=flexArrow;endArrow=classic;html=1;rounded=0;" edge="1" parent="1">
          <mxGeometry width="50" height="50" relative="1" as="geometry">
            <mxPoint x="320" y="210" as="sourcePoint" />
            <mxPoint x="320" y="430" as="targetPoint" />
          </mxGeometry>
        </mxCell>
        <mxCell id="PEpBy_y8UZYiY-abr7ag-4" value="Stack" style="text;html=1;align=center;verticalAlign=middle;resizable=0;points=[];autosize=1;strokeColor=none;fillColor=none;" vertex="1" parent="1">
          <mxGeometry x="250" y="210" width="50" height="30" as="geometry" />
        </mxCell>
        <mxCell id="PEpBy_y8UZYiY-abr7ag-5" value="" style="shape=flexArrow;endArrow=classic;html=1;rounded=0;" edge="1" parent="1">
          <mxGeometry width="50" height="50" relative="1" as="geometry">
            <mxPoint x="320" y="670" as="sourcePoint" />
            <mxPoint x="320" y="460" as="targetPoint" />
          </mxGeometry>
        </mxCell>
        <mxCell id="PEpBy_y8UZYiY-abr7ag-6" value="Heap" style="text;html=1;align=center;verticalAlign=middle;resizable=0;points=[];autosize=1;strokeColor=none;fillColor=none;" vertex="1" parent="1">
          <mxGeometry x="250" y="640" width="50" height="30" as="geometry" />
        </mxCell>
        <mxCell id="PEpBy_y8UZYiY-abr7ag-9" value="numbers1" style="rounded=0;whiteSpace=wrap;html=1;" vertex="1" parent="1">
          <mxGeometry x="354" y="220" width="120" height="60" as="geometry" />
        </mxCell>
        <mxCell id="PEpBy_y8UZYiY-abr7ag-10" value="10&lt;div&gt;20&lt;/div&gt;&lt;div&gt;30&lt;/div&gt;" style="whiteSpace=wrap;html=1;" vertex="1" parent="1">
          <mxGeometry x="360" y="620" width="120" height="60" as="geometry" />
        </mxCell>
        <mxCell id="PEpBy_y8UZYiY-abr7ag-12" value="numbers2" style="rounded=0;whiteSpace=wrap;html=1;" vertex="1" parent="1">
          <mxGeometry x="354" y="290" width="120" height="60" as="geometry" />
        </mxCell>
        <mxCell id="PEpBy_y8UZYiY-abr7ag-13" value="10&lt;div&gt;20&lt;/div&gt;&lt;div&gt;30&lt;/div&gt;" style="whiteSpace=wrap;html=1;" vertex="1" parent="1">
          <mxGeometry x="360" y="550" width="120" height="60" as="geometry" />
        </mxCell>
        <mxCell id="PEpBy_y8UZYiY-abr7ag-17" value="" style="endArrow=none;dashed=1;html=1;dashPattern=1 3;strokeWidth=2;rounded=0;exitX=0;exitY=0;exitDx=0;exitDy=0;" edge="1" parent="1" source="PEpBy_y8UZYiY-abr7ag-13">
          <mxGeometry width="50" height="50" relative="1" as="geometry">
            <mxPoint x="380" y="620" as="sourcePoint" />
            <mxPoint x="447" y="320" as="targetPoint" />
            <Array as="points">
              <mxPoint x="360" y="550" />
              <mxPoint x="360" y="420" />
              <mxPoint x="470" y="420" />
              <mxPoint x="470" y="320" />
              <mxPoint x="447" y="320" />
            </Array>
          </mxGeometry>
        </mxCell>
        <mxCell id="PEpBy_y8UZYiY-abr7ag-19" value="" style="endArrow=none;dashed=1;html=1;dashPattern=1 3;strokeWidth=2;rounded=0;exitX=0;exitY=0;exitDx=0;exitDy=0;" edge="1" parent="1" source="PEpBy_y8UZYiY-abr7ag-10">
          <mxGeometry width="50" height="50" relative="1" as="geometry">
            <mxPoint x="350" y="620" as="sourcePoint" />
            <mxPoint x="441" y="250" as="targetPoint" />
            <Array as="points">
              <mxPoint x="350" y="620" />
              <mxPoint x="350" y="410" />
              <mxPoint x="454" y="410" />
              <mxPoint x="454" y="250" />
              <mxPoint x="441" y="250" />
            </Array>
          </mxGeometry>
        </mxCell>
      </root>
    </mxGraphModel>
  </diagram>
</mxfile>
